<?xml version="1.0" standalone="no"?>
<!DOCTYPE svg PUBLIC "-//W3C//DTD SVG 20010904//EN"
 "http://www.w3.org/TR/2001/REC-SVG-20010904/DTD/svg10.dtd">
<svg version="1.0" xmlns="http://www.w3.org/2000/svg"
 width="169.000000pt" height="169.000000pt" viewBox="0 0 169.000000 169.000000"
 preserveAspectRatio="xMidYMid meet">
<metadata>
Created by potrace 1.11, written by Peter Selinger 2001-2013
</metadata>
<g transform="translate(0.000000,169.000000) scale(0.100000,-0.100000)"
fill="#000000" stroke="none">
<path d="M749 1686 c-2 -2 -26 -7 -54 -11 -154 -20 -350 -126 -464 -251 -160
-175 -232 -365 -227 -598 6 -233 82 -414 245 -577 122 -122 251 -192 420 -229
114 -25 295 -21 400 10 315 90 552 352 608 670 3 14 7 72 9 130 7 220 -72 429
-226 594 -44 48 -131 117 -180 145 -148 82 -250 111 -411 117 -63 2 -117 2
-120 0z"/>
</g>
</svg>
